<?xml version="1.0" standalone="no"?>
<!DOCTYPE svg PUBLIC "-//W3C//DTD SVG 20010904//EN"
 "http://www.w3.org/TR/2001/REC-SVG-20010904/DTD/svg10.dtd">
<svg version="1.0" xmlns="http://www.w3.org/2000/svg"
 width="1536.000000pt" height="1024.000000pt" viewBox="0 0 1536.000000 1024.000000"
 preserveAspectRatio="xMidYMid meet">

<g transform="translate(0.000000,1024.000000) scale(0.100000,-0.100000)"
fill="#000000" stroke="none">
<path d="M6356 7915 c-575 -93 -1067 -464 -1326 -999 -270 -558 -245 -1174 67
-1691 315 -522 863 -851 1453 -872 317 -12 592 51 864 195 49 26 91 52 92 57
2 6 -20 26 -49 45 -105 71 -304 225 -390 303 l-89 80 -71 -17 c-244 -58 -506
-38 -722 56 -605 263 -872 955 -594 1547 140 299 388 518 699 619 131 43 205
54 350 54 187 0 371 -46 519 -128 52 -29 63 -30 77 -6 28 44 221 267 308 354
l96 96 -78 50 c-178 114 -381 198 -588 244 -128 28 -479 35 -618 13z"/>
<path d="M7570 7354 c-36 -38 -126 -146 -201 -239 -140 -174 -206 -236 -339
-317 -83 -50 -213 -95 -302 -105 l-73 -8 -3 -345 c-2 -279 1 -365 14 -449 51
-329 235 -626 564 -906 117 -99 380 -285 404 -285 3 0 6 153 6 340 l0 340
-108 0 c-71 0 -114 4 -125 13 -15 10 -17 38 -19 212 l-3 200 -189 3 c-119 1
-194 7 -203 13 -18 16 -19 439 -1 457 8 8 68 12 202 12 l191 0 2 201 c2 132 7
206 14 215 8 10 41 14 121 14 78 0 110 4 113 13 3 6 4 165 3 351 l-3 339 -65
-69z"/>
<path d="M3040 3870 c-171 -27 -321 -134 -395 -280 -46 -92 -60 -150 -60 -255
0 -158 48 -272 161 -380 104 -100 223 -145 384 -145 161 0 269 42 380 146 299
283 176 787 -220 898 -72 20 -181 27 -250 16z m183 -184 c212 -50 328 -298
232 -500 -33 -70 -126 -158 -192 -180 -120 -41 -243 -26 -343 42 -217 147
-193 489 43 609 84 42 165 51 260 29z"/>
<path d="M7535 3861 c-58 -24 -82 -115 -41 -160 75 -83 210 -9 175 96 -18 55
-81 85 -134 64z"/>
<path d="M7010 3640 l0 -100 -55 0 -55 0 0 -70 0 -70 54 0 54 0 4 -222 c3
-247 6 -258 72 -316 45 -40 121 -57 201 -45 l60 8 3 76 3 77 -45 -5 c-57 -7
-101 11 -115 46 -7 17 -10 90 -9 201 l3 175 83 3 82 3 0 69 0 70 -85 0 -85 0
0 100 0 100 -85 0 -85 0 0 -100z"/>
<path d="M4171 3550 c-54 -12 -123 -51 -150 -87 l-20 -28 -1 53 0 52 -90 0
-90 0 0 -500 0 -500 90 0 90 0 0 192 0 192 38 -36 c63 -61 96 -73 197 -73 79
0 97 3 145 28 30 16 68 40 83 55 146 138 155 406 19 551 -78 83 -202 123 -311
101z m82 -161 c47 -13 115 -72 134 -116 19 -46 16 -131 -6 -178 -47 -102 -161
-150 -259 -110 -82 35 -122 101 -122 200 0 78 23 131 72 168 60 45 113 55 181
36z"/>
<path d="M4987 3550 c-119 -21 -226 -109 -267 -218 -66 -176 -13 -365 129
-460 128 -85 314 -83 444 7 40 27 87 78 87 95 0 3 -31 21 -69 40 l-68 35 -28
-29 c-103 -108 -314 -58 -341 79 l-6 31 272 0 273 0 -5 89 c-5 75 -10 97 -38
150 -18 33 -52 78 -75 100 -72 66 -201 100 -308 81z m148 -159 c22 -10 50 -29
62 -42 25 -28 46 -77 38 -90 -3 -5 -87 -8 -186 -7 -194 2 -193 2 -165 56 45
87 160 125 251 83z"/>
<path d="M6290 3545 c-69 -19 -150 -74 -183 -124 -134 -202 -75 -482 121 -578
50 -24 69 -28 147 -28 100 0 127 10 196 72 l39 35 0 -44 0 -45 53 -5 c28 -3
67 -3 85 -1 l32 5 0 354 0 354 -85 0 -85 0 0 -52 0 -51 -34 35 c-71 73 -182
101 -286 73z m210 -170 c101 -52 138 -184 84 -294 -33 -66 -83 -100 -155 -108
-46 -4 -62 -1 -109 24 -166 87 -137 350 43 394 38 9 102 2 137 -16z"/>
<path d="M8100 3549 c-74 -15 -165 -66 -211 -117 -69 -78 -83 -120 -84 -247 0
-99 3 -116 26 -165 35 -73 100 -136 179 -174 60 -29 73 -31 170 -31 98 0 109
3 172 33 81 39 149 112 180 192 30 79 30 204 -1 285 -31 80 -124 173 -202 202
-66 25 -168 35 -229 22z m157 -171 c64 -19 123 -116 123 -199 0 -49 -42 -132
-81 -162 -100 -75 -244 -45 -299 63 -67 133 1 284 139 310 38 8 64 5 118 -12z"/>
<path d="M9045 3554 c-64 -16 -93 -31 -132 -67 l-43 -40 0 47 0 46 -90 0 -90
0 0 -355 0 -355 90 0 90 0 0 220 c0 236 5 265 51 306 27 24 80 44 116 44 42 0
97 -36 116 -74 15 -32 17 -69 17 -265 l0 -229 23 -4 c12 -2 53 -2 90 0 l68 4
-4 262 c-3 162 -9 276 -16 299 -16 50 -71 111 -124 136 -43 21 -127 33 -162
25z"/>
<path d="M5845 3536 c-33 -14 -95 -71 -95 -87 0 -5 -4 -9 -8 -9 -5 0 -9 8 -9
18 1 9 0 32 -1 50 l-2 32 -85 0 -85 0 0 -360 0 -361 85 3 85 3 1 30 c1 17 1
95 -1 175 -1 85 3 170 10 203 20 100 80 147 185 147 l55 0 0 85 0 85 -52 0
c-29 -1 -67 -7 -83 -14z"/>
<path d="M7480 3186 l0 -355 90 -3 90 -3 0 358 0 357 -90 0 -90 0 0 -354z"/>
<path d="M4157 2340 c-66 -52 -49 -165 29 -190 39 -13 80 -6 106 17 14 12 15
19 7 29 -9 11 -15 11 -32 -1 -53 -37 -112 -3 -110 63 2 61 61 92 110 57 17
-12 23 -12 32 -1 9 10 6 17 -13 30 -35 23 -98 21 -129 -4z"/>
<path d="M4489 2331 c-41 -42 -41 -107 0 -153 25 -28 36 -33 76 -33 40 0 51 5
76 33 22 24 29 42 29 73 0 51 -13 75 -50 94 -48 25 -97 19 -131 -14z m121 -21
c25 -25 27 -86 3 -112 -21 -23 -75 -24 -96 0 -42 47 -11 132 48 132 14 0 34
-9 45 -20z"/>
<path d="M4840 2255 c0 -87 3 -105 15 -105 12 0 15 14 15 65 0 36 4 65 8 65 5
0 19 -25 31 -55 13 -31 28 -54 35 -52 6 2 25 30 43 63 l32 59 3 -75 c2 -59 6
-75 18 -75 12 0 16 20 18 108 l3 108 -27 -3 c-21 -2 -30 -14 -52 -65 -15 -35
-30 -63 -34 -63 -3 0 -20 29 -37 65 -22 49 -35 65 -50 65 -20 0 -21 -6 -21
-105z"/>
<path d="M5230 2255 c0 -98 1 -105 20 -105 16 0 20 7 20 35 0 33 2 35 34 35
45 0 86 33 86 70 0 44 -40 70 -106 70 l-54 0 0 -105z m101 65 c39 -21 16 -70
-33 -70 -26 0 -28 3 -28 40 0 34 3 40 21 40 11 0 29 -5 40 -10z"/>
<path d="M5581 2338 c-5 -13 -23 -58 -40 -101 -17 -43 -31 -80 -31 -82 0 -15
40 -2 45 15 5 17 15 20 57 20 41 0 51 -3 55 -20 3 -13 14 -20 28 -20 22 0 22
2 -20 103 -33 80 -46 103 -63 105 -15 2 -25 -4 -31 -20z m48 -59 c17 -50 14
-59 -19 -59 -34 0 -34 -1 -18 51 14 47 23 49 37 8z"/>
<path d="M5870 2255 c0 -87 3 -105 15 -105 10 0 15 10 15 34 0 58 33 59 64 2
11 -20 28 -36 42 -39 30 -5 30 -4 -1 41 -25 36 -25 37 -6 52 34 26 37 65 7 94
-21 22 -34 26 -81 26 l-55 0 0 -105z m104 62 c10 -7 17 -22 15 -33 -3 -15 -14
-20 -47 -22 -40 -3 -42 -2 -42 26 0 16 3 32 7 35 11 11 48 8 67 -6z"/>
<path d="M6190 2255 l0 -105 76 0 c56 0 75 3 72 13 -3 7 -26 13 -56 15 -50 3
-52 4 -52 33 0 28 2 29 45 29 33 0 45 4 45 15 0 11 -12 15 -45 15 -43 0 -45 1
-45 30 0 30 1 30 55 30 44 0 53 3 49 15 -5 11 -23 15 -75 15 l-69 0 0 -105z"/>
<path d="M7301 2346 c-58 -32 -68 -116 -22 -168 25 -28 36 -33 74 -33 53 0 95
29 76 52 -10 11 -15 11 -29 -2 -9 -8 -29 -15 -43 -15 -64 0 -92 89 -41 129 32
25 52 26 81 6 18 -12 23 -13 32 -1 29 35 -76 61 -128 32z"/>
<path d="M7600 2255 c0 -98 1 -105 20 -105 17 0 20 7 20 45 l0 45 49 0 50 0 3
-47 c2 -35 7 -48 18 -48 12 0 16 20 18 108 3 102 2 107 -18 107 -17 0 -20 -6
-20 -45 l0 -45 -50 0 -50 0 0 45 c0 38 -3 45 -20 45 -19 0 -20 -7 -20 -105z"/>
<path d="M7984 2342 c-96 -78 -16 -237 98 -193 47 18 68 50 68 104 0 40 -5 53
-29 78 -24 23 -38 29 -73 29 -26 0 -52 -7 -64 -18z m106 -32 c25 -25 27 -86 3
-112 -20 -22 -70 -23 -95 -1 -43 39 -10 133 47 133 14 0 34 -9 45 -20z"/>
<path d="M8347 2339 c-15 -11 -32 -37 -38 -59 -16 -54 11 -109 63 -128 46 -18
82 -9 119 28 32 31 38 79 17 125 -24 54 -113 73 -161 34z m107 -30 c52 -41 23
-129 -43 -129 -35 0 -71 40 -71 77 0 29 41 73 68 73 11 0 31 -9 46 -21z"/>
<path d="M8697 2342 c-20 -22 -22 -65 -3 -81 7 -6 31 -17 52 -25 27 -9 39 -19
39 -32 0 -15 -7 -19 -35 -18 -19 1 -44 3 -54 5 -31 6 -29 -19 3 -35 41 -22 73
-20 105 5 25 20 33 52 18 76 -4 6 -28 21 -54 32 -54 23 -63 34 -42 52 12 10
22 10 47 1 40 -15 63 2 33 24 -28 20 -89 18 -109 -4z"/>
<path d="M8998 2353 c-2 -5 -3 -53 -3 -108 l0 -100 30 1 c98 1 115 4 115 19 0
12 -13 15 -55 15 -54 0 -55 0 -55 30 0 29 1 30 50 30 38 0 50 4 50 15 0 11
-12 15 -51 15 -49 0 -50 1 -47 28 3 25 7 27 56 30 37 2 52 7 52 18 0 11 -15
14 -69 14 -39 0 -71 -3 -73 -7z"/>
<path d="M10111 2346 c-58 -32 -68 -116 -22 -168 25 -28 36 -33 74 -33 53 0
95 29 76 52 -10 11 -15 11 -29 -2 -9 -8 -29 -15 -43 -15 -64 0 -92 89 -41 129
32 25 52 26 81 6 18 -12 23 -13 32 -1 29 35 -76 61 -128 32z"/>
<path d="M10433 2255 c-38 -98 -40 -105 -21 -105 11 0 22 8 25 20 4 17 14 20
58 20 44 0 54 -3 58 -20 3 -12 14 -20 26 -20 l21 0 -21 53 c-12 28 -30 76 -41
105 -16 40 -26 52 -42 52 -17 0 -28 -18 -63 -105z m76 33 c25 -68 25 -68 -14
-68 -31 0 -36 3 -30 18 4 9 12 29 17 45 12 33 16 34 27 5z"/>
<path d="M10755 2255 c-1 -94 1 -105 17 -105 14 0 18 8 18 34 0 19 5 38 10 41
11 7 70 -50 70 -66 0 -5 11 -9 25 -9 l26 0 -25 37 c-25 37 -25 37 -6 55 12 12
20 32 20 53 0 46 -29 65 -100 65 l-55 0 0 -105z m109 62 c13 -10 16 -20 12
-35 -6 -18 -15 -22 -47 -22 -36 0 -39 2 -39 28 0 16 3 32 7 35 11 11 48 8 67
-6z"/>
<path d="M11086 2323 c-3 -21 -6 -68 -6 -105 l0 -68 75 0 c60 0 75 3 75 15 0
12 -13 15 -55 15 -54 0 -55 0 -55 30 0 29 1 30 50 30 38 0 50 4 50 15 0 11
-12 15 -50 15 -49 0 -50 1 -50 30 0 30 1 30 55 30 42 0 55 3 55 15 0 12 -14
15 -69 15 l-68 0 -7 -37z"/>
</g>
</svg>
